<svg viewBox="0 0 314 42" fill="none" xmlns="http://www.w3.org/2000/svg"><g clip-path="url(#moovweb-layer0-black_svg__clip0)"><path d="M8.566 8.218h10.743l.776 16.426 7.508-16.426h10.743L32.77 35.375h-6.73l4.27-20.666-9.448 20.666H14.78l-.777-20.666-4.271 20.666H3L8.565 8.218zM39.76 21.863c.906-4.372 2.847-7.816 5.695-10.333 2.977-2.517 6.472-3.71 10.872-3.71 4.401 0 7.508 1.193 9.45 3.577 1.94 2.385 2.329 5.829 1.423 10.2-.647 3.18-1.683 5.697-3.236 7.816-1.424 1.988-3.236 3.577-5.436 4.77-2.2 1.192-4.79 1.722-7.766 1.722-2.977 0-5.307-.53-7.12-1.458-1.811-.927-2.976-2.517-3.753-4.636-.777-2.12-.777-4.77-.13-7.948zm8.154 0c-.518 2.781-.518 4.636.259 5.828.777 1.193 1.941 1.855 3.624 1.855 1.812 0 3.236-.53 4.401-1.722 1.165-1.192 2.07-3.312 2.718-6.359.647-2.517.518-4.372-.259-5.564-.776-1.192-1.941-1.722-3.753-1.722-1.683 0-3.107.662-4.401 1.855-1.165 1.06-2.071 3.047-2.589 5.829zm22.651 0c.906-4.372 2.848-7.816 5.695-10.333 2.977-2.517 6.472-3.71 10.873-3.71 4.4 0 7.507 1.193 9.449 3.577 1.941 2.385 2.33 5.829 1.424 10.2-.648 3.18-1.683 5.697-3.236 7.816-1.424 1.988-3.236 3.577-5.437 4.77-2.2 1.192-4.789 1.722-7.766 1.722-2.977 0-5.307-.53-7.119-1.458-1.812-.927-2.977-2.517-3.753-4.636-.777-2.12-.777-4.77-.13-7.948zm8.155 0c-.518 2.781-.518 4.636.259 5.828.776 1.193 1.941 1.855 3.624 1.855 1.812 0 3.236-.53 4.4-1.722 1.165-1.192 2.072-3.312 2.719-6.359.517-2.517.388-4.372-.389-5.564-.776-1.192-1.941-1.722-3.753-1.722-1.683 0-3.107.662-4.401 1.855-1.035 1.06-1.942 3.047-2.46 5.829zm22.263-13.645h8.542l1.942 19.473 9.966-19.473h8.284l-15.532 27.157h-8.931l-4.271-27.157zm31.582 0h7.766l-.388 15.102 7.248-15.102h7.766l.906 15.102 5.954-15.102h7.766l-11.39 27.024h-8.025l-1.165-17.089-8.154 17.09h-8.025l-.259-27.025zm68.342 0h15.273c2.589 0 4.401.662 5.436 1.987 1.036 1.325 1.424 2.914 1.036 4.769-.389 1.59-1.165 2.914-2.33 4.107-.777.794-1.942 1.324-3.236 1.854 1.812.53 2.977 1.325 3.754 2.385.647 1.192.776 2.517.517 4.239-.258 1.457-.906 2.65-1.812 3.842-.906 1.06-1.941 1.987-3.106 2.65-.777.396-1.812.661-3.236.926-1.942.265-3.106.398-3.754.398h-14.108l5.566-27.157zm5.954 10.73h3.494c1.295 0 2.201-.265 2.848-.662.647-.398 1.035-1.06 1.165-1.987.129-.795 0-1.458-.388-1.855-.389-.397-1.165-.662-2.46-.662h-3.624l-1.035 5.166zm-2.201 10.598h4.142c1.424 0 2.459-.265 3.107-.795.647-.53 1.165-1.192 1.294-2.12.129-.794 0-1.457-.518-1.987s-1.424-.794-2.847-.794h-4.142l-1.036 5.696z" fill="#111"></path><path d="M167.544 35.373h24.845l1.294-6.256h-24.845l-1.294 6.256z" fill="url(#moovweb-layer0-black_svg__paint0_linear)"></path><path d="M194.46 18.734h-23.551l-1.294 6.256h23.551l1.294-6.256z" fill="url(#moovweb-layer0-black_svg__paint1_linear)"></path><path d="M171.814 14.742h24.975l1.294-6.256h-24.975l-1.294 6.256z" fill="url(#moovweb-layer0-black_svg__paint2_linear)"></path></g><path d="M240.854 8.818h-6.891l5.766 13.091L229.412 35h7.376l6.29-8.36h.205l3.528 8.36h7.095l-5.957-13.09 10.048-13.092h-7.325l-6.213 8.272h-.205l-3.4-8.272zM266.741 35c7.978 0 13.564-4.73 14.894-12.771 1.381-8.323-2.851-13.41-10.841-13.41h-9.524L256.923 35h9.818zm-2.595-5.395l2.557-15.392h3.145c4.5 0 6.494 1.854 5.574 7.364-.946 5.79-3.886 8.028-8.284 8.028h-2.992zm45.703-20.787h-6.315l-2.48 15.085h-.217l-7.824-15.085h-5.446L283.22 35h6.328l2.519-15.11h.179L300.134 35h5.369l4.346-26.182z" fill="#111"></path><defs><linearGradient id="moovweb-layer0-black_svg__paint0_linear" x1="179.543" y1="34.902" x2="173.925" y2="9.041" gradientUnits="userSpaceOnUse"><stop stop-color="#6159F6"></stop><stop offset="1" stop-color="#E95495"></stop></linearGradient><linearGradient id="moovweb-layer0-black_svg__paint1_linear" x1="179.544" y1="34.901" x2="173.612" y2="9.189" gradientUnits="userSpaceOnUse"><stop stop-color="#6159F6"></stop><stop offset="1" stop-color="#E95495"></stop></linearGradient><linearGradient id="moovweb-layer0-black_svg__paint2_linear" x1="180.514" y1="35.905" x2="174.718" y2="9.072" gradientUnits="userSpaceOnUse"><stop stop-color="#6159F6"></stop><stop offset="1" stop-color="#E95495"></stop></linearGradient><clipPath id="moovweb-layer0-black_svg__clip0"><path fill="#fff" transform="translate(3 7.82)" d="M0 0h221.165v28.084H0z"></path></clipPath></defs></svg>
